<svg width="512" height="512" viewBox="0 0 512 512" fill="none" xmlns="http://www.w3.org/2000/svg">
<path d="M133.353 285.543C131.883 284.221 131.08 284.798 130.578 286.639C128.047 295.92 129.259 308.084 130.921 317.432C133.875 334.049 141.624 346.559 152.808 358.912C163.323 370.526 177.311 381.411 192.164 386.828C209.375 393.105 229.97 391.649 247.79 389.774C262.833 388.19 278.041 389.351 292.97 386.383C308.094 383.375 321.978 378.145 336.128 372.202C348.374 367.058 358.399 359.122 369.49 352.13C379.606 345.753 384.156 333.818 389.836 323.769" stroke="#A2FFD8" stroke-width="22" stroke-linecap="round"/>
<path d="M119.172 287.392C111.241 287.212 107.177 279.167 104.032 272.732C98.0382 260.467 96.4302 246.55 97.079 233.034C97.2562 229.341 101.483 195.991 109.444 198.747C111.279 199.382 113.013 201.142 114.377 202.446C117.795 205.715 121.899 208.08 126.331 209.708C139.447 214.526 151.944 224.339 166.03 225.121" stroke="#A2FFD8" stroke-width="22" stroke-linecap="round"/>
<path d="M153.699 212.174C153.982 211.04 154.837 210 155.685 209.228C162.35 203.161 171.724 198.994 179.868 195.493C200.459 186.641 223.477 181.091 245.701 178.538C273.216 175.376 303.07 175.025 330.202 181.175C345.589 184.663 359.59 190.743 373.806 197.377" stroke="#A2FFD8" stroke-width="22" stroke-linecap="round"/>
<path d="M352.227 181.963C352.825 184.956 362.752 175.611 363.325 175.112C370.424 168.933 376.084 162.1 382.095 154.938C388.117 147.763 391.791 144.729 396.961 154.355C405.697 170.623 415.192 188.318 416.827 206.967C417.994 220.28 418.507 243.087 407.099 252.866" stroke="#A2FFD8" stroke-width="22" stroke-linecap="round"/>
<path d="M385 221C387.593 224.153 389.142 229.091 390.901 232.907C396.211 244.421 399.74 256.472 401.018 269.613C401.994 279.646 402.595 290.41 401.083 300.405C399.272 312.377 393.033 322.034 386.751 331" stroke="#A2FFD8" stroke-width="22" stroke-linecap="round"/>
<path d="M199.308 321.427C194.167 319.142 193.986 326.426 197.493 325.023C200.809 323.697 203.814 317.891 198.075 318.002C193.371 318.092 192.322 326.185 197.151 324.715C200.706 323.633 200.35 319.015 196.226 320.194" stroke="#A2FFD8" stroke-width="22" stroke-linecap="round"/>
<path d="M338.046 298.433C335.039 294.308 332.331 283.801 331.419 293.553C331.071 297.277 342.186 296.97 338.661 290.082C335.446 283.798 328.501 293.267 332.599 298.324C335.726 302.184 342 298.847 342 293.553" stroke="#A2FFD8" stroke-width="22" stroke-linecap="round"/>
</svg>
